Coordinates
version=1
nRows=8
nColumns=46
inDegrees=yes

Units are S.I. units (second, meters, Newtons, ...)
Angles are in degrees.

endheader
time	pelvis_tilt	pelvis_list	pelvis_rotation	pelvis_tx	pelvis_ty	pelvis_tz	bb_angle	bb_tx	bb_ty	bb_tz	hip_flexion_r	hip_adduction_r	hip_rotation_r	knee_angle_r	knee_angle_r_beta	ankle_angle_r	subtalar_angle_r	mtp_angle_r	crank_angle_r	hip_flexion_l	hip_adduction_l	hip_rotation_l	knee_angle_l	knee_angle_l_beta	ankle_angle_l	subtalar_angle_l	mtp_angle_l	crank_angle_l	lumbar_extension	lumbar_bending	lumbar_rotation	arm_flex_r	arm_add_r	arm_rot_r	elbow_flex_r	pro_sup_r	wrist_flex_r	wrist_dev_r	arm_flex_l	arm_add_l	arm_rot_l	elbow_flex_l	pro_sup_l	wrist_flex_l	wrist_dev_l
      7.50500000	    -12.42469884	      7.38856845	      0.56395840	      0.18178401	      1.13428428	     -0.19403560	      0.00000000	      0.50000000	      0.00000000	      0.25000000	     41.64009003	     -6.47862022	     10.45683452	     31.08879323	      0.54260180	     -0.55475660	    -13.84831406	      0.00000000	      0.00000000	     66.56492873	      5.56265924	      6.60454051	    101.90515403	      1.77858046	     -2.39406171	     -9.04615041	      0.00000000	      0.00000000	    -64.77790797	     -6.33256811	    -14.10665728	     86.69898039	    -16.41427918	     45.77706946	     57.23245420	     45.37908257	      0.00000000	      0.00000000	     87.18617412	    -28.64383398	     35.23340280	     65.51209675	     49.34445637	      0.00000000	      0.00000000
      7.51000000	    -12.73202525	      7.79679812	      1.47179636	      0.18185162	      1.13444993	     -0.19280776	      0.00000000	      0.50000000	      0.00000000	      0.25000000	     40.20489591	     -7.45426764	      9.77790381	     28.83249044	      0.50322189	     -2.18837228	    -14.02977569	      0.00000000	      0.00000000	     68.12435076	      6.29729591	      6.59618021	    103.06341214	      1.79879588	     -1.37491088	     -8.31323091	      0.00000000	      0.00000000	    -64.56549257	     -6.39354652	    -15.58522309	     86.19785982	    -14.96072047	     44.53804374	     55.94017615	     45.28962814	      0.00000000	      0.00000000	     87.50736558	    -29.39991460	     36.23241380	     65.70143127	     49.33182718	      0.00000000	      0.00000000
      7.51500000	    -13.14429974	      8.22738049	      2.27576459	      0.18172352	      1.13421149	     -0.19176015	      0.00000000	      0.50000000	      0.00000000	      0.25000000	     39.05985884	     -8.43565196	      8.92293531	     26.90682471	      0.46961268	     -3.27714061	    -13.24696268	      0.00000000	      0.00000000	     69.85340510	      6.89400805	      6.41647409	    104.17519976	      1.81820023	     -0.70519703	     -7.99597904	      0.00000000	      0.00000000	    -64.30513967	     -6.54573223	    -16.65525735	     85.89236072	    -14.83458329	     44.53056816	     55.75808836	     45.29978740	      0.00000000	      0.00000000	     87.63170754	    -29.25916548	     36.31928884	     65.80450492	     49.33138961	      0.00000000	      0.00000000
      7.52000000	    -13.66062240	      8.62395632	      2.97307088	      0.18195791	      1.13393779	     -0.19077061	      0.00000000	      0.50000000	      0.00000000	      0.25000000	     38.07356737	     -9.31254202	      8.02833282	     25.15431868	      0.43902568	     -4.26042122	    -12.39129421	      0.00000000	      0.00000000	     71.56096177	      7.49174885	      6.19735779	    105.13435928	      1.83494073	      0.21204379	     -8.16378676	      0.00000000	      0.00000000	    -63.94985507	     -6.81962761	    -17.59451571	     85.53355999	    -14.74374228	     44.52910107	     55.54882805	     45.29064763	      0.00000000	      0.00000000	     87.81121827	    -29.05177586	     36.41021390	     65.95600367	     49.34691926	      0.00000000	      0.00000000
      7.52500000	    -13.97325610	      8.86989940	      3.79972557	      0.18191298	      1.13415953	     -0.18999340	      0.00000000	      0.50000000	      0.00000000	      0.25000000	     36.74460462	    -10.15498186	      6.75406218	     23.23882415	      0.40559400	     -5.33310612	    -11.44137053	      0.00000000	      0.00000000	     73.20960315	      7.86600029	      6.12705205	    106.03487221	      1.85065764	      0.99735849	     -6.98394465	      0.00000000	      0.00000000	    -63.78499953	     -6.77583408	    -18.72711337	     85.22817898	    -13.83257317	     44.05133228	     54.77538714	     45.22578395	      0.00000000	      0.00000000	     87.90530791	    -29.43345305	     36.62541235	     66.20139214	     49.33078697	      0.00000000	      0.00000000
      7.53000000	    -14.48483721	      9.21790124	      4.50440557	      0.18199994	      1.13414058	     -0.18909442	      0.00000000	      0.50000000	      0.00000000	      0.25000000	     35.78636269	    -10.99936704	      5.62409145	     21.63740113	      0.37764389	     -6.12044576	    -10.14560308	      0.00000000	      0.00000000	     74.94809429	      8.22792791	      5.82945877	    106.72238513	      1.86265701	      1.65009500	     -6.51645112	      0.00000000	      0.00000000	    -63.43055649	     -7.01546391	    -19.83188846	     84.83274482	    -12.98553844	     43.52002847	     53.72881562	     45.19509822	      0.00000000	      0.00000000	     87.99442261	    -29.69159620	     36.90234180	     66.55161926	     49.28000956	      0.00000000	      0.00000000
      7.53500000	    -15.06035680	      9.48344412	      5.02621564	      0.18196989	      1.13396111	     -0.18788119	      0.00000000	      0.50000000	      0.00000000	      0.25000000	     35.02879917	    -11.59732052	      4.72471896	     20.22342051	      0.35296527	     -7.04595915	     -9.20000963	      0.00000000	      0.00000000	     76.73946243	      8.29018076	      5.52220629	    107.27222856	      1.87225358	      2.09261194	     -6.20611976	      0.00000000	      0.00000000	    -63.07113199	     -7.39435200	    -20.52428648	     84.50154092	    -12.96155637	     43.60256549	     53.55789046	     45.20357202	      0.00000000	      0.00000000	     88.12451257	    -29.45254192	     36.97209774	     66.70652675	     49.29115089	      0.00000000	      0.00000000
      7.54000000	    -15.44550291	      9.52423038	      5.66268726	      0.18202831	      1.13404948	     -0.18704090	      0.00000000	      0.50000000	      0.00000000	      0.25000000	     34.06593829	    -12.05975726	      3.39852098	     18.97409637	      0.33116045	     -7.77793016	     -8.10820235	      0.00000000	      0.00000000	     78.30730767	      8.36093871	      5.49963479	    107.73160108	      1.88027115	      2.65628696	     -5.15958882	      0.00000000	      0.00000000	    -62.76795591	     -7.42263408	    -21.13670148	     84.23977120	    -12.59466984	     43.52035330	     53.11379929	     45.21796944	      0.00000000	      0.00000000	     88.13472836	    -29.46615696	     37.08168777	     66.83130219	     49.25150003	      0.00000000	      0.00000000
